<?xml version="1.0" encoding="UTF-8"?>
<svg xmlns="http://www.w3.org/2000/svg" xmlns:xlink="http://www.w3.org/1999/xlink" width="32px" height="32px" viewBox="0 0 32 32" version="1.1">
<g id="surface1">
<path style=" stroke:none;fill-rule:nonzero;fill:rgb(64.705884%,15.294118%,13.725491%);fill-opacity:1;" d="M 15.90625 6.0625 C 15.972656 6.0625 15.972656 6.0625 16.0625 6.09375 C 16.132812 6.171875 16.1875 6.257812 16.242188 6.347656 C 16.269531 6.382812 16.269531 6.382812 16.292969 6.425781 C 16.347656 6.507812 16.402344 6.589844 16.457031 6.671875 C 16.492188 6.726562 16.527344 6.78125 16.5625 6.835938 C 16.617188 6.917969 16.667969 7 16.722656 7.078125 C 16.859375 7.289062 17 7.496094 17.140625 7.703125 C 17.25 7.855469 17.355469 8.015625 17.460938 8.171875 C 17.503906 8.238281 17.546875 8.300781 17.589844 8.367188 C 17.609375 8.398438 17.632812 8.429688 17.652344 8.464844 C 17.78125 8.65625 17.90625 8.847656 18.035156 9.035156 C 18.136719 9.191406 18.242188 9.347656 18.34375 9.5 C 18.363281 9.53125 18.382812 9.5625 18.40625 9.59375 C 18.441406 9.648438 18.480469 9.707031 18.519531 9.761719 C 18.535156 9.789062 18.550781 9.8125 18.570312 9.839844 C 18.582031 9.863281 18.597656 9.882812 18.613281 9.90625 C 18.628906 9.925781 18.640625 9.949219 18.65625 9.96875 C 18.667969 9.992188 18.683594 10.011719 18.695312 10.035156 C 18.746094 10.097656 18.746094 10.097656 18.820312 10.109375 C 18.847656 10.109375 18.875 10.109375 18.902344 10.109375 C 18.933594 10.109375 18.964844 10.109375 18.996094 10.109375 C 19.03125 10.109375 19.0625 10.109375 19.097656 10.109375 C 19.136719 10.109375 19.171875 10.113281 19.207031 10.113281 C 19.328125 10.113281 19.445312 10.113281 19.566406 10.113281 C 19.648438 10.113281 19.730469 10.113281 19.8125 10.113281 C 20.007812 10.117188 20.203125 10.117188 20.398438 10.117188 C 20.621094 10.117188 20.84375 10.117188 21.066406 10.121094 C 21.523438 10.121094 21.980469 10.125 22.4375 10.125 C 22.40625 10.363281 22.40625 10.363281 22.335938 10.46875 C 22.320312 10.492188 22.308594 10.511719 22.292969 10.535156 C 22.269531 10.566406 22.269531 10.566406 22.246094 10.601562 C 22.214844 10.644531 22.1875 10.6875 22.15625 10.734375 C 22.136719 10.765625 22.136719 10.765625 22.109375 10.800781 C 22.058594 10.878906 22.007812 10.957031 21.960938 11.039062 C 21.839844 11.222656 21.722656 11.40625 21.601562 11.589844 C 21.535156 11.691406 21.46875 11.789062 21.40625 11.886719 C 21.390625 11.90625 21.378906 11.929688 21.367188 11.949219 C 21.238281 12.144531 21.109375 12.335938 20.984375 12.53125 C 20.964844 12.5625 20.945312 12.589844 20.925781 12.621094 C 20.898438 12.660156 20.898438 12.660156 20.871094 12.703125 C 20.855469 12.726562 20.839844 12.75 20.824219 12.773438 C 20.8125 12.796875 20.796875 12.820312 20.78125 12.84375 C 20.761719 12.871094 20.742188 12.894531 20.726562 12.921875 C 20.679688 12.996094 20.679688 12.996094 20.707031 13.078125 C 20.753906 13.164062 20.808594 13.246094 20.863281 13.332031 C 20.886719 13.363281 20.910156 13.398438 20.929688 13.429688 C 20.953125 13.464844 20.976562 13.496094 21 13.53125 C 21.039062 13.589844 21.078125 13.648438 21.117188 13.710938 C 21.183594 13.808594 21.25 13.910156 21.320312 14.007812 C 21.445312 14.199219 21.574219 14.390625 21.699219 14.582031 C 22.140625 15.246094 22.585938 15.910156 23.035156 16.570312 C 23.070312 16.621094 23.105469 16.675781 23.140625 16.726562 C 23.210938 16.835938 23.285156 16.945312 23.363281 17.054688 C 23.386719 17.085938 23.410156 17.121094 23.433594 17.152344 C 23.464844 17.195312 23.464844 17.195312 23.496094 17.238281 C 23.539062 17.332031 23.523438 17.371094 23.5 17.46875 C 22.871094 17.5 22.242188 17.5 21.609375 17.496094 C 21.480469 17.492188 21.351562 17.492188 21.222656 17.492188 C 21.175781 17.492188 21.132812 17.492188 21.089844 17.488281 C 21.023438 17.488281 20.957031 17.488281 20.890625 17.488281 C 20.640625 17.488281 20.390625 17.484375 20.144531 17.480469 C 19.941406 17.476562 19.742188 17.476562 19.539062 17.476562 C 19.433594 17.472656 19.328125 17.472656 19.222656 17.472656 C 19.105469 17.46875 18.988281 17.46875 18.871094 17.46875 C 18.839844 17.46875 18.804688 17.464844 18.769531 17.464844 C 18.625 17.46875 18.535156 17.46875 18.421875 17.566406 C 18.355469 17.640625 18.355469 17.640625 18.296875 17.722656 C 18.28125 17.742188 18.265625 17.761719 18.25 17.78125 C 18.230469 17.78125 18.207031 17.78125 18.1875 17.78125 C 18.175781 17.8125 18.167969 17.84375 18.15625 17.875 C 17.671875 18.320312 17.09375 18.53125 16.46875 18.6875 C 16.480469 19.359375 16.488281 20.027344 16.5 20.71875 C 16.65625 20.71875 16.808594 20.71875 16.96875 20.71875 C 17.066406 20.71875 17.164062 20.71875 17.261719 20.71875 C 17.417969 20.71875 17.574219 20.71875 17.730469 20.714844 C 17.855469 20.714844 17.980469 20.714844 18.105469 20.714844 C 18.15625 20.714844 18.203125 20.714844 18.25 20.714844 C 18.316406 20.714844 18.382812 20.714844 18.453125 20.714844 C 18.488281 20.714844 18.527344 20.714844 18.566406 20.714844 C 18.65625 20.71875 18.65625 20.71875 18.71875 20.75 C 18.71875 20.882812 18.71875 21.019531 18.71875 21.152344 C 18.722656 21.191406 18.722656 21.230469 18.722656 21.269531 C 18.722656 21.324219 18.722656 21.324219 18.722656 21.378906 C 18.722656 21.429688 18.722656 21.429688 18.722656 21.480469 C 18.71875 21.5625 18.71875 21.5625 18.6875 21.625 C 18.285156 21.65625 17.886719 21.65625 17.480469 21.640625 C 17.425781 21.640625 17.367188 21.640625 17.3125 21.636719 C 17.175781 21.632812 17.042969 21.628906 16.90625 21.625 C 16.894531 21.65625 16.886719 21.6875 16.875 21.71875 C 16.824219 21.707031 16.773438 21.699219 16.71875 21.6875 C 16.71875 21.675781 16.71875 21.667969 16.71875 21.65625 C 16.625 21.652344 16.558594 21.65625 16.46875 21.6875 C 16.46875 21.71875 16.46875 21.753906 16.46875 21.785156 C 16.46875 22.09375 16.472656 22.402344 16.472656 22.710938 C 16.472656 22.867188 16.472656 23.027344 16.472656 23.183594 C 16.472656 23.335938 16.472656 23.488281 16.476562 23.640625 C 16.476562 23.699219 16.476562 23.757812 16.476562 23.816406 C 16.476562 23.898438 16.476562 23.980469 16.476562 24.0625 C 16.476562 24.085938 16.476562 24.109375 16.476562 24.132812 C 16.476562 24.253906 16.472656 24.304688 16.40625 24.40625 C 16.277344 24.425781 16.148438 24.421875 16.019531 24.417969 C 15.984375 24.421875 15.949219 24.421875 15.910156 24.421875 C 15.875 24.421875 15.839844 24.421875 15.804688 24.421875 C 15.757812 24.421875 15.757812 24.421875 15.710938 24.421875 C 15.605469 24.402344 15.566406 24.363281 15.5 24.28125 C 15.519531 24.269531 15.542969 24.261719 15.5625 24.25 C 15.550781 23.796875 15.542969 23.34375 15.53125 22.875 C 15.519531 22.875 15.511719 22.875 15.5 22.875 C 15.5 22.742188 15.5 22.605469 15.5 22.46875 C 15.511719 22.46875 15.519531 22.46875 15.53125 22.46875 C 15.542969 22.191406 15.550781 21.910156 15.5625 21.625 C 15.496094 21.625 15.425781 21.625 15.355469 21.625 C 15.132812 21.628906 14.910156 21.628906 14.6875 21.628906 C 14.550781 21.628906 14.414062 21.632812 14.277344 21.632812 C 14.148438 21.632812 14.015625 21.632812 13.886719 21.632812 C 13.835938 21.632812 13.785156 21.632812 13.734375 21.636719 C 13.664062 21.636719 13.597656 21.636719 13.527344 21.636719 C 13.484375 21.636719 13.445312 21.636719 13.40625 21.636719 C 13.375 21.632812 13.34375 21.628906 13.3125 21.625 C 13.246094 21.523438 13.242188 21.5 13.242188 21.382812 C 13.242188 21.355469 13.242188 21.324219 13.242188 21.296875 C 13.242188 21.265625 13.242188 21.234375 13.242188 21.203125 C 13.246094 21.160156 13.246094 21.160156 13.246094 21.113281 C 13.246094 20.851562 13.246094 20.851562 13.28125 20.75 C 13.371094 20.703125 13.453125 20.714844 13.554688 20.714844 C 13.585938 20.714844 13.585938 20.714844 13.621094 20.714844 C 13.691406 20.714844 13.761719 20.714844 13.835938 20.714844 C 13.886719 20.714844 13.933594 20.714844 13.984375 20.714844 C 14.113281 20.714844 14.246094 20.714844 14.375 20.714844 C 14.535156 20.71875 14.691406 20.71875 14.847656 20.71875 C 15.085938 20.71875 15.324219 20.71875 15.5625 20.71875 C 15.5625 20.039062 15.5625 19.359375 15.5625 18.65625 C 15.429688 18.636719 15.292969 18.613281 15.15625 18.59375 C 14.570312 18.449219 14.09375 18.125 13.667969 17.707031 C 13.652344 17.691406 13.632812 17.675781 13.617188 17.65625 C 13.5 17.539062 13.5 17.539062 13.5 17.46875 C 13.480469 17.46875 13.464844 17.46875 13.445312 17.472656 C 12.917969 17.496094 12.386719 17.503906 11.859375 17.503906 C 11.773438 17.503906 11.691406 17.503906 11.609375 17.503906 C 11.433594 17.503906 11.261719 17.503906 11.089844 17.503906 C 10.890625 17.503906 10.691406 17.503906 10.492188 17.503906 C 10.320312 17.503906 10.148438 17.503906 9.972656 17.503906 C 9.871094 17.503906 9.769531 17.503906 9.667969 17.503906 C 8.855469 17.503906 8.855469 17.503906 8.5 17.46875 C 8.492188 17.332031 8.5 17.253906 8.578125 17.140625 C 8.597656 17.117188 8.613281 17.089844 8.632812 17.0625 C 8.652344 17.035156 8.671875 17.007812 8.691406 16.980469 C 8.710938 16.953125 8.730469 16.921875 8.75 16.894531 C 8.8125 16.800781 8.875 16.710938 8.9375 16.617188 C 9 16.527344 9.0625 16.4375 9.125 16.347656 C 9.164062 16.289062 9.203125 16.234375 9.242188 16.175781 C 9.359375 16.011719 9.46875 15.839844 9.578125 15.671875 C 9.660156 15.539062 9.746094 15.414062 9.832031 15.285156 C 9.894531 15.191406 9.953125 15.101562 10 15 C 10.019531 15 10.042969 15 10.0625 15 C 10.070312 14.980469 10.074219 14.960938 10.082031 14.9375 C 10.140625 14.804688 10.222656 14.6875 10.304688 14.566406 C 10.324219 14.539062 10.339844 14.511719 10.359375 14.484375 C 10.417969 14.394531 10.472656 14.308594 10.53125 14.222656 C 10.570312 14.164062 10.605469 14.109375 10.644531 14.050781 C 10.929688 13.621094 10.929688 13.621094 11.066406 13.421875 C 11.078125 13.398438 11.09375 13.375 11.109375 13.355469 C 11.136719 13.316406 11.164062 13.273438 11.191406 13.234375 C 11.242188 13.15625 11.28125 13.089844 11.3125 13 C 11.292969 12.980469 11.269531 12.957031 11.25 12.9375 C 11.214844 12.878906 11.183594 12.824219 11.148438 12.765625 C 11.066406 12.617188 10.972656 12.476562 10.875 12.339844 C 10.800781 12.230469 10.726562 12.121094 10.65625 12.007812 C 10.640625 11.988281 10.628906 11.964844 10.613281 11.941406 C 10.582031 11.894531 10.550781 11.847656 10.519531 11.796875 C 10.425781 11.648438 10.328125 11.503906 10.234375 11.355469 C 10.210938 11.324219 10.191406 11.292969 10.171875 11.261719 C 10.070312 11.105469 9.96875 10.953125 9.863281 10.796875 C 9.738281 10.613281 9.625 10.425781 9.53125 10.21875 C 9.550781 10.1875 9.574219 10.15625 9.59375 10.125 C 9.679688 10.113281 9.761719 10.105469 9.851562 10.101562 C 9.875 10.101562 9.902344 10.101562 9.929688 10.097656 C 10.222656 10.089844 10.515625 10.097656 10.808594 10.105469 C 11.011719 10.113281 11.214844 10.117188 11.417969 10.117188 C 11.59375 10.121094 11.769531 10.125 11.949219 10.132812 C 12.121094 10.136719 12.292969 10.140625 12.46875 10.144531 C 12.535156 10.144531 12.597656 10.144531 12.664062 10.148438 C 13.007812 10.175781 13.007812 10.175781 13.308594 10.042969 C 13.417969 9.914062 13.492188 9.777344 13.5625 9.625 C 13.605469 9.539062 13.660156 9.460938 13.714844 9.378906 C 13.734375 9.351562 13.75 9.328125 13.769531 9.300781 C 13.792969 9.261719 13.792969 9.261719 13.820312 9.222656 C 13.996094 8.960938 13.996094 8.960938 14.167969 8.695312 C 14.183594 8.671875 14.199219 8.648438 14.21875 8.621094 C 14.253906 8.566406 14.253906 8.566406 14.25 8.5 C 14.273438 8.476562 14.296875 8.453125 14.320312 8.429688 C 14.410156 8.339844 14.476562 8.242188 14.539062 8.132812 C 14.675781 7.910156 14.816406 7.695312 14.960938 7.484375 C 15.152344 7.195312 15.339844 6.910156 15.527344 6.621094 C 15.648438 6.429688 15.777344 6.246094 15.90625 6.0625 Z M 15.96875 7.65625 C 15.921875 7.722656 15.875 7.792969 15.828125 7.859375 C 15.800781 7.90625 15.773438 7.949219 15.746094 7.992188 C 15.730469 8.011719 15.714844 8.035156 15.699219 8.058594 C 15.632812 8.160156 15.566406 8.257812 15.5 8.359375 C 15.472656 8.398438 15.449219 8.4375 15.421875 8.476562 C 15.402344 8.507812 15.402344 8.507812 15.382812 8.535156 C 15.371094 8.554688 15.355469 8.574219 15.34375 8.59375 C 15.332031 8.613281 15.320312 8.628906 15.308594 8.648438 C 15.296875 8.664062 15.285156 8.683594 15.273438 8.699219 C 15.261719 8.71875 15.25 8.738281 15.234375 8.753906 C 15.210938 8.792969 15.1875 8.828125 15.160156 8.867188 C 15.078125 8.992188 14.992188 9.121094 14.90625 9.246094 C 14.863281 9.3125 14.816406 9.378906 14.773438 9.445312 C 14.742188 9.496094 14.742188 9.496094 14.710938 9.542969 C 14.6875 9.574219 14.667969 9.601562 14.648438 9.632812 C 14.628906 9.660156 14.613281 9.6875 14.59375 9.714844 C 14.507812 9.851562 14.425781 9.988281 14.34375 10.125 C 14.757812 10.125 15.171875 10.125 15.585938 10.125 C 15.78125 10.125 15.972656 10.128906 16.164062 10.128906 C 16.351562 10.128906 16.535156 10.128906 16.722656 10.128906 C 16.792969 10.128906 16.863281 10.128906 16.933594 10.128906 C 17.035156 10.128906 17.132812 10.128906 17.230469 10.128906 C 17.261719 10.128906 17.289062 10.128906 17.320312 10.128906 C 17.347656 10.128906 17.375 10.128906 17.402344 10.128906 C 17.4375 10.128906 17.4375 10.128906 17.472656 10.128906 C 17.535156 10.128906 17.535156 10.128906 17.59375 10.09375 C 17.550781 9.972656 17.496094 9.878906 17.421875 9.777344 C 17.402344 9.75 17.382812 9.722656 17.363281 9.695312 C 17.347656 9.671875 17.332031 9.648438 17.3125 9.625 C 17.265625 9.554688 17.21875 9.480469 17.167969 9.410156 C 16.964844 9.101562 16.964844 9.101562 16.757812 8.796875 C 16.6875 8.703125 16.625 8.605469 16.5625 8.507812 C 16.445312 8.324219 16.328125 8.144531 16.207031 7.960938 C 16.175781 7.917969 16.175781 7.917969 16.148438 7.871094 C 16.128906 7.84375 16.109375 7.816406 16.089844 7.789062 C 16.074219 7.761719 16.058594 7.738281 16.039062 7.710938 C 16.027344 7.691406 16.015625 7.675781 16 7.65625 C 15.988281 7.65625 15.980469 7.65625 15.96875 7.65625 Z M 11.125 11 C 11.113281 11.019531 11.105469 11.042969 11.09375 11.0625 C 11.117188 11.117188 11.117188 11.117188 11.160156 11.179688 C 11.175781 11.203125 11.191406 11.226562 11.207031 11.25 C 11.222656 11.277344 11.238281 11.300781 11.257812 11.328125 C 11.273438 11.355469 11.289062 11.378906 11.308594 11.40625 C 11.480469 11.679688 11.664062 11.949219 11.84375 12.21875 C 11.960938 12.109375 12.054688 11.992188 12.144531 11.855469 C 12.15625 11.835938 12.167969 11.816406 12.183594 11.796875 C 12.207031 11.753906 12.234375 11.714844 12.261719 11.671875 C 12.300781 11.609375 12.34375 11.546875 12.386719 11.484375 C 12.410156 11.445312 12.4375 11.40625 12.464844 11.363281 C 12.476562 11.347656 12.488281 11.328125 12.5 11.308594 C 12.566406 11.207031 12.617188 11.113281 12.65625 11 C 12.625 11.007812 12.625 11.007812 12.59375 11.015625 C 12.574219 11.023438 12.554688 11.027344 12.53125 11.03125 C 12.515625 11.015625 12.515625 11.015625 12.5 11 C 12.457031 10.996094 12.414062 10.996094 12.371094 10.996094 C 12.34375 10.996094 12.316406 10.996094 12.285156 10.996094 C 12.242188 10.996094 12.242188 10.996094 12.195312 10.996094 C 12.152344 10.996094 12.152344 10.996094 12.105469 10.996094 C 12.007812 10.996094 11.910156 10.996094 11.8125 11 C 11.746094 11 11.679688 11 11.613281 11 C 11.449219 11 11.289062 11 11.125 11 Z M 13.222656 11.75 C 13.105469 11.980469 12.960938 12.191406 12.8125 12.40625 C 12.777344 12.460938 12.742188 12.511719 12.707031 12.566406 C 12.6875 12.601562 12.6875 12.601562 12.664062 12.636719 C 12.648438 12.660156 12.632812 12.683594 12.617188 12.707031 C 12.453125 12.960938 12.285156 13.210938 12.121094 13.460938 C 12.011719 13.621094 11.90625 13.785156 11.804688 13.949219 C 11.695312 14.113281 11.585938 14.277344 11.476562 14.4375 C 11.425781 14.515625 11.375 14.59375 11.324219 14.671875 C 11.234375 14.804688 11.144531 14.941406 11.054688 15.074219 C 10.863281 15.363281 10.671875 15.648438 10.480469 15.9375 C 10.449219 15.988281 10.417969 16.039062 10.382812 16.085938 C 10.335938 16.160156 10.289062 16.234375 10.238281 16.304688 C 10.21875 16.339844 10.21875 16.339844 10.195312 16.371094 C 10.125 16.460938 10.125 16.460938 10.09375 16.5625 C 11.042969 16.5625 11.992188 16.5625 12.96875 16.5625 C 12.949219 16.53125 12.925781 16.5 12.90625 16.46875 C 12.90625 16.457031 12.90625 16.449219 12.90625 16.4375 C 12.898438 16.386719 12.886719 16.339844 12.878906 16.289062 C 12.867188 16.226562 12.855469 16.160156 12.84375 16.09375 C 12.835938 16.0625 12.832031 16.03125 12.824219 16 C 12.78125 15.753906 12.773438 15.507812 12.773438 15.257812 C 12.769531 15.222656 12.769531 15.191406 12.769531 15.15625 C 12.769531 14.949219 12.800781 14.785156 12.875 14.59375 C 12.886719 14.554688 12.898438 14.519531 12.910156 14.480469 C 13.0625 13.988281 13.304688 13.507812 13.6875 13.15625 C 13.703125 13.136719 13.71875 13.121094 13.738281 13.101562 C 14.289062 12.515625 15.074219 12.1875 15.875 12.15625 C 16.207031 12.152344 16.523438 12.191406 16.84375 12.28125 C 16.863281 12.285156 16.882812 12.289062 16.902344 12.296875 C 17.261719 12.390625 17.613281 12.589844 17.90625 12.8125 C 17.9375 12.835938 17.964844 12.855469 17.996094 12.878906 C 18.664062 13.402344 19.097656 14.167969 19.207031 15.011719 C 19.246094 15.4375 19.214844 15.832031 19.125 16.25 C 19.105469 16.351562 19.082031 16.457031 19.0625 16.5625 C 20 16.5625 20.9375 16.5625 21.90625 16.5625 C 21.851562 16.425781 21.785156 16.3125 21.703125 16.191406 C 21.675781 16.148438 21.644531 16.105469 21.617188 16.066406 C 21.601562 16.042969 21.589844 16.023438 21.574219 16 C 21.523438 15.921875 21.46875 15.84375 21.417969 15.765625 C 21.285156 15.570312 21.152344 15.371094 21.015625 15.175781 C 20.855469 14.941406 20.699219 14.707031 20.546875 14.464844 C 20.480469 14.359375 20.410156 14.253906 20.339844 14.148438 C 20.28125 14.0625 20.222656 13.976562 20.167969 13.890625 C 20.109375 13.800781 20.050781 13.710938 19.992188 13.625 C 19.960938 13.578125 19.929688 13.535156 19.902344 13.488281 C 19.734375 13.238281 19.566406 12.984375 19.386719 12.742188 C 19.3125 12.644531 19.25 12.542969 19.191406 12.4375 C 19.117188 12.308594 19.03125 12.183594 18.945312 12.0625 C 18.925781 12.03125 18.90625 12 18.886719 11.972656 C 18.84375 11.910156 18.804688 11.847656 18.761719 11.785156 C 18.695312 11.691406 18.632812 11.597656 18.570312 11.5 C 18.527344 11.441406 18.488281 11.378906 18.445312 11.320312 C 18.425781 11.292969 18.410156 11.261719 18.386719 11.234375 C 18.371094 11.207031 18.351562 11.183594 18.335938 11.15625 C 18.320312 11.132812 18.304688 11.109375 18.289062 11.085938 C 18.253906 11.03125 18.253906 11.03125 18.21875 11 C 18.164062 10.996094 18.105469 10.992188 18.050781 10.988281 C 18.011719 10.988281 17.976562 10.988281 17.9375 10.984375 C 17.878906 10.984375 17.878906 10.984375 17.816406 10.980469 C 17.773438 10.980469 17.730469 10.980469 17.6875 10.976562 C 17.289062 10.964844 16.894531 10.957031 16.5 10.949219 C 16.234375 10.945312 15.96875 10.9375 15.703125 10.925781 C 15.472656 10.917969 15.242188 10.914062 15.011719 10.910156 C 14.886719 10.910156 14.765625 10.90625 14.644531 10.898438 C 13.882812 10.859375 13.566406 11.085938 13.222656 11.75 Z M 19.3125 11 C 19.46875 11.316406 19.675781 11.609375 19.875 11.898438 C 19.886719 11.921875 19.902344 11.941406 19.917969 11.964844 C 19.980469 12.058594 20.042969 12.140625 20.125 12.21875 C 20.226562 12.066406 20.328125 11.910156 20.429688 11.757812 C 20.464844 11.707031 20.5 11.652344 20.535156 11.601562 C 20.585938 11.527344 20.632812 11.453125 20.683594 11.375 C 20.707031 11.339844 20.707031 11.339844 20.730469 11.304688 C 20.746094 11.285156 20.757812 11.261719 20.773438 11.238281 C 20.785156 11.21875 20.800781 11.203125 20.8125 11.179688 C 20.851562 11.117188 20.851562 11.117188 20.875 11 C 20.359375 11 19.84375 11 19.3125 11 Z M 14.308594 13.804688 C 13.957031 14.226562 13.707031 14.691406 13.71875 15.25 C 13.703125 15.265625 13.703125 15.265625 13.6875 15.28125 C 13.613281 15.921875 13.894531 16.503906 14.257812 17.007812 C 14.6875 17.453125 15.242188 17.722656 15.863281 17.757812 C 16.546875 17.765625 17.113281 17.574219 17.617188 17.101562 C 17.804688 16.917969 17.941406 16.734375 18.0625 16.5 C 18.074219 16.480469 18.085938 16.460938 18.097656 16.441406 C 18.285156 16.09375 18.335938 15.671875 18.3125 15.28125 C 18.300781 15.261719 18.292969 15.238281 18.28125 15.21875 C 18.277344 15.167969 18.277344 15.121094 18.273438 15.070312 C 18.230469 14.554688 17.949219 14.109375 17.59375 13.75 C 17.570312 13.726562 17.546875 13.703125 17.523438 13.679688 C 17.226562 13.382812 16.820312 13.167969 16.40625 13.09375 C 16.371094 13.085938 16.335938 13.078125 16.300781 13.070312 C 15.539062 13.007812 14.835938 13.242188 14.308594 13.804688 Z M 14.308594 13.804688 "/>
<path style=" stroke:none;fill-rule:nonzero;fill:rgb(64.705884%,16.078432%,13.725491%);fill-opacity:1;" d="M 14.5 26.09375 C 14.527344 26.097656 14.527344 26.097656 14.554688 26.097656 C 15.242188 26.164062 15.933594 26.175781 16.625 26.1875 C 16.625 26.199219 16.625 26.207031 16.625 26.21875 C 16.339844 26.277344 16.058594 26.292969 15.765625 26.292969 C 15.746094 26.292969 15.722656 26.292969 15.703125 26.292969 C 14.796875 26.292969 14.796875 26.292969 14.5 26.09375 Z M 14.5 26.09375 "/>
<path style=" stroke:none;fill-rule:nonzero;fill:rgb(67.058825%,16.470589%,14.117648%);fill-opacity:1;" d="M 15.324219 5.21875 C 15.351562 5.21875 15.375 5.21875 15.402344 5.21875 C 15.464844 5.21875 15.53125 5.21875 15.59375 5.21875 C 15.59375 5.230469 15.59375 5.238281 15.59375 5.25 C 15.34375 5.269531 15.09375 5.285156 14.84375 5.28125 C 14.84375 5.269531 14.84375 5.261719 14.84375 5.25 C 15.003906 5.214844 15.160156 5.214844 15.324219 5.21875 Z M 15.324219 5.21875 "/>
<path style=" stroke:none;fill-rule:nonzero;fill:rgb(64.705884%,18.039216%,15.294118%);fill-opacity:1;" d="M 13.46875 21.65625 C 13.625 21.65625 13.777344 21.65625 13.9375 21.65625 C 13.9375 21.667969 13.9375 21.675781 13.9375 21.6875 C 13.78125 21.6875 13.628906 21.6875 13.46875 21.6875 C 13.46875 21.675781 13.46875 21.667969 13.46875 21.65625 Z M 13.46875 21.65625 "/>
<path style=" stroke:none;fill-rule:nonzero;fill:rgb(66.274512%,18.431373%,15.686275%);fill-opacity:1;" d="M 17.46875 21.65625 C 17.5625 21.65625 17.65625 21.65625 17.75 21.65625 C 17.621094 21.722656 17.601562 21.722656 17.46875 21.6875 C 17.46875 21.675781 17.46875 21.667969 17.46875 21.65625 Z M 17.46875 21.65625 "/>
<path style=" stroke:none;fill-rule:nonzero;fill:rgb(67.058825%,18.82353%,15.686275%);fill-opacity:1;" d="M 14.84375 21.65625 C 14.914062 21.65625 14.988281 21.65625 15.0625 21.65625 C 15.0625 21.667969 15.0625 21.675781 15.0625 21.6875 C 14.992188 21.699219 14.917969 21.707031 14.84375 21.71875 C 14.84375 21.699219 14.84375 21.675781 14.84375 21.65625 Z M 14.84375 21.65625 "/>
<path style=" stroke:none;fill-rule:nonzero;fill:rgb(65.098041%,18.431373%,15.686275%);fill-opacity:1;" d="M 18.21875 21.65625 C 18.289062 21.65625 18.363281 21.65625 18.4375 21.65625 C 18.417969 21.675781 18.394531 21.699219 18.375 21.71875 C 18.292969 21.707031 18.292969 21.707031 18.21875 21.6875 C 18.21875 21.675781 18.21875 21.667969 18.21875 21.65625 Z M 18.21875 21.65625 "/>
<path style=" stroke:none;fill-rule:nonzero;fill:rgb(65.098041%,18.431373%,16.078432%);fill-opacity:1;" d="M 13.71875 15.28125 C 13.730469 15.28125 13.738281 15.28125 13.75 15.28125 C 13.75 15.351562 13.75 15.425781 13.75 15.5 C 13.738281 15.5 13.730469 15.5 13.71875 15.5 C 13.71875 15.429688 13.71875 15.355469 13.71875 15.28125 Z M 13.71875 15.28125 "/>
<path style=" stroke:none;fill-rule:nonzero;fill:rgb(64.313728%,18.039216%,15.294118%);fill-opacity:1;" d="M 18.46875 20.65625 C 18.519531 20.65625 18.570312 20.65625 18.625 20.65625 C 18.625 20.667969 18.625 20.675781 18.625 20.6875 C 18.574219 20.6875 18.523438 20.6875 18.46875 20.6875 C 18.46875 20.675781 18.46875 20.667969 18.46875 20.65625 Z M 18.46875 20.65625 "/>
<path style=" stroke:none;fill-rule:nonzero;fill:rgb(68.235296%,19.607843%,16.862746%);fill-opacity:1;" d="M 16.71875 20.65625 C 16.769531 20.65625 16.820312 20.65625 16.875 20.65625 C 16.875 20.667969 16.875 20.675781 16.875 20.6875 C 16.824219 20.6875 16.773438 20.6875 16.71875 20.6875 C 16.71875 20.675781 16.71875 20.667969 16.71875 20.65625 Z M 16.71875 20.65625 "/>
<path style=" stroke:none;fill-rule:nonzero;fill:rgb(65.098041%,18.039216%,15.294118%);fill-opacity:1;" d="M 15.84375 24.4375 C 15.96875 24.46875 15.96875 24.46875 15.96875 24.46875 Z M 15.84375 24.4375 "/>
<path style=" stroke:none;fill-rule:nonzero;fill:rgb(65.490198%,18.039216%,15.686275%);fill-opacity:1;" d="M 15.5 23.75 C 15.53125 23.875 15.53125 23.875 15.53125 23.875 Z M 15.5 23.75 "/>
<path style=" stroke:none;fill-rule:nonzero;fill:rgb(65.882355%,18.431373%,16.078432%);fill-opacity:1;" d="M 15.5 23.53125 C 15.53125 23.65625 15.53125 23.65625 15.53125 23.65625 Z M 15.5 23.53125 "/>
<path style=" stroke:none;fill-rule:nonzero;fill:rgb(66.274512%,18.431373%,16.078432%);fill-opacity:1;" d="M 15.5 23.03125 C 15.53125 23.15625 15.53125 23.15625 15.53125 23.15625 Z M 15.5 23.03125 "/>
<path style=" stroke:none;fill-rule:nonzero;fill:rgb(67.450982%,18.82353%,15.686275%);fill-opacity:1;" d="M 17.09375 21.65625 C 17.125 21.667969 17.15625 21.675781 17.1875 21.6875 C 17.15625 21.699219 17.125 21.707031 17.09375 21.71875 C 17.09375 21.699219 17.09375 21.675781 17.09375 21.65625 Z M 17.09375 21.65625 "/>
<path style=" stroke:none;fill-rule:nonzero;fill:rgb(67.450982%,18.82353%,16.078432%);fill-opacity:1;" d="M 15.46875 21.65625 C 15.488281 21.65625 15.511719 21.65625 15.53125 21.65625 C 15.519531 21.6875 15.511719 21.71875 15.5 21.75 C 15.488281 21.71875 15.480469 21.6875 15.46875 21.65625 Z M 15.46875 21.65625 "/>
<path style=" stroke:none;fill-rule:nonzero;fill:rgb(66.666669%,18.82353%,15.294118%);fill-opacity:1;" d="M 14.6875 21.65625 C 14.8125 21.6875 14.8125 21.6875 14.8125 21.6875 Z M 14.6875 21.65625 "/>
<path style=" stroke:none;fill-rule:nonzero;fill:rgb(66.666669%,18.431373%,15.686275%);fill-opacity:1;" d="M 14.53125 21.65625 C 14.65625 21.6875 14.65625 21.6875 14.65625 21.6875 Z M 14.53125 21.65625 "/>
<path style=" stroke:none;fill-rule:nonzero;fill:rgb(66.274512%,18.431373%,16.078432%);fill-opacity:1;" d="M 15.5 19.25 C 15.53125 19.375 15.53125 19.375 15.53125 19.375 Z M 15.5 19.25 "/>
<path style=" stroke:none;fill-rule:nonzero;fill:rgb(63.921571%,18.431373%,15.294118%);fill-opacity:1;" d="M 22.1875 15.25 C 22.21875 15.265625 22.21875 15.265625 22.25 15.28125 C 22.238281 15.300781 22.230469 15.324219 22.21875 15.34375 C 22.207031 15.3125 22.199219 15.28125 22.1875 15.25 Z M 22.1875 15.25 "/>
<path style=" stroke:none;fill-rule:nonzero;fill:rgb(66.274512%,18.431373%,16.078432%);fill-opacity:1;" d="M 19.5625 13.09375 C 19.59375 13.109375 19.59375 13.109375 19.625 13.125 C 19.613281 13.144531 19.605469 13.167969 19.59375 13.1875 C 19.582031 13.15625 19.574219 13.125 19.5625 13.09375 Z M 19.5625 13.09375 "/>
<path style=" stroke:none;fill-rule:nonzero;fill:rgb(66.666669%,18.82353%,16.470589%);fill-opacity:1;" d="M 18.28125 11.15625 C 18.3125 11.203125 18.3125 11.203125 18.34375 11.25 C 18.324219 11.25 18.300781 11.25 18.28125 11.25 C 18.28125 11.21875 18.28125 11.1875 18.28125 11.15625 Z M 18.28125 11.15625 "/>
<path style=" stroke:none;fill-rule:nonzero;fill:rgb(64.705884%,15.686275%,13.333334%);fill-opacity:1;" d="M 14.6875 5.28125 C 14.8125 5.3125 14.8125 5.3125 14.8125 5.3125 Z M 14.6875 5.28125 "/>
<path style=" stroke:none;fill-rule:nonzero;fill:rgb(65.882355%,15.294118%,13.725491%);fill-opacity:1;" d="M 19 25.75 C 19.09375 25.78125 19.09375 25.78125 19.09375 25.78125 Z M 19 25.75 "/>
<path style=" stroke:none;fill-rule:nonzero;fill:rgb(63.529414%,16.078432%,13.725491%);fill-opacity:1;" d="M 19.09375 25.71875 C 19.1875 25.75 19.1875 25.75 19.1875 25.75 Z M 19.09375 25.71875 "/>
<path style=" stroke:none;fill-rule:nonzero;fill:rgb(64.705884%,16.862746%,14.117648%);fill-opacity:1;" d="M 19.1875 25.6875 C 19.28125 25.71875 19.28125 25.71875 19.28125 25.71875 Z M 19.1875 25.6875 "/>
<path style=" stroke:none;fill-rule:nonzero;fill:rgb(65.882355%,17.254902%,14.901961%);fill-opacity:1;" d="M 19.28125 25.65625 C 19.375 25.6875 19.375 25.6875 19.375 25.6875 Z M 19.28125 25.65625 "/>
<path style=" stroke:none;fill-rule:nonzero;fill:rgb(65.490198%,17.647059%,14.901961%);fill-opacity:1;" d="M 19.375 25.625 C 19.46875 25.65625 19.46875 25.65625 19.46875 25.65625 Z M 19.375 25.625 "/>
<path style=" stroke:none;fill-rule:nonzero;fill:rgb(67.450982%,18.431373%,15.686275%);fill-opacity:1;" d="M 15.21875 21.65625 C 15.3125 21.6875 15.3125 21.6875 15.3125 21.6875 Z M 15.21875 21.65625 "/>
<path style=" stroke:none;fill-rule:nonzero;fill:rgb(67.058825%,19.215687%,16.470589%);fill-opacity:1;" d="M 16.3125 17.65625 C 16.40625 17.6875 16.40625 17.6875 16.40625 17.6875 Z M 16.3125 17.65625 "/>
<path style=" stroke:none;fill-rule:nonzero;fill:rgb(64.313728%,17.647059%,15.686275%);fill-opacity:1;" d="M 14.46875 13.6875 C 14.480469 13.707031 14.488281 13.730469 14.5 13.75 C 14.480469 13.738281 14.457031 13.730469 14.4375 13.71875 C 14.449219 13.707031 14.457031 13.699219 14.46875 13.6875 Z M 14.46875 13.6875 "/>
<path style=" stroke:none;fill-rule:nonzero;fill:rgb(65.490198%,18.82353%,16.078432%);fill-opacity:1;" d="M 10.8125 12.34375 C 10.832031 12.34375 10.855469 12.34375 10.875 12.34375 C 10.863281 12.363281 10.855469 12.386719 10.84375 12.40625 C 10.832031 12.386719 10.824219 12.363281 10.8125 12.34375 Z M 10.8125 12.34375 "/>
<path style=" stroke:none;fill-rule:nonzero;fill:rgb(65.882355%,16.862746%,14.509805%);fill-opacity:1;" d="M 19.46875 25.59375 C 19.53125 25.625 19.53125 25.625 19.53125 25.625 Z M 19.46875 25.59375 "/>
<path style=" stroke:none;fill-rule:nonzero;fill:rgb(65.490198%,16.470589%,14.117648%);fill-opacity:1;" d="M 19.5625 25.5625 C 19.625 25.59375 19.625 25.59375 19.625 25.59375 Z M 19.5625 25.5625 "/>
<path style=" stroke:none;fill-rule:nonzero;fill:rgb(63.921571%,18.431373%,16.078432%);fill-opacity:1;" d="M 16.34375 24.4375 C 16.40625 24.46875 16.40625 24.46875 16.40625 24.46875 Z M 16.34375 24.4375 "/>
<path style=" stroke:none;fill-rule:nonzero;fill:rgb(65.098041%,18.431373%,15.686275%);fill-opacity:1;" d="M 16.09375 24.4375 C 16.15625 24.46875 16.15625 24.46875 16.15625 24.46875 Z M 16.09375 24.4375 "/>
<path style=" stroke:none;fill-rule:nonzero;fill:rgb(63.529414%,18.431373%,15.686275%);fill-opacity:1;" d="M 18.53125 21.65625 C 18.59375 21.6875 18.59375 21.6875 18.59375 21.6875 Z M 18.53125 21.65625 "/>
<path style=" stroke:none;fill-rule:nonzero;fill:rgb(66.274512%,18.82353%,15.686275%);fill-opacity:1;" d="M 17.84375 21.65625 C 17.90625 21.6875 17.90625 21.6875 17.90625 21.6875 Z M 17.84375 21.65625 "/>
<path style=" stroke:none;fill-rule:nonzero;fill:rgb(67.450982%,18.431373%,16.078432%);fill-opacity:1;" d="M 16.59375 21.65625 C 16.65625 21.6875 16.65625 21.6875 16.65625 21.6875 Z M 16.59375 21.65625 "/>
<path style=" stroke:none;fill-rule:nonzero;fill:rgb(67.843139%,18.82353%,15.686275%);fill-opacity:1;" d="M 14.75 20.65625 C 14.8125 20.6875 14.8125 20.6875 14.8125 20.6875 Z M 14.75 20.65625 "/>
<path style=" stroke:none;fill-rule:nonzero;fill:rgb(66.666669%,18.82353%,16.470589%);fill-opacity:1;" d="M 16.875 17.5 C 16.9375 17.53125 16.9375 17.53125 16.9375 17.53125 Z M 16.875 17.5 "/>
<path style=" stroke:none;fill-rule:nonzero;fill:rgb(65.490198%,18.82353%,16.078432%);fill-opacity:1;" d="M 14.1875 16.8125 C 14.25 16.84375 14.25 16.84375 14.25 16.84375 Z M 14.1875 16.8125 "/>
<path style=" stroke:none;fill-rule:nonzero;fill:rgb(67.450982%,18.82353%,16.470589%);fill-opacity:1;" d="M 19.375 16.5 C 19.4375 16.53125 19.4375 16.53125 19.4375 16.53125 Z M 19.375 16.5 "/>
<path style=" stroke:none;fill-rule:nonzero;fill:rgb(66.274512%,19.215687%,16.470589%);fill-opacity:1;" d="M 19.09375 16.5 C 19.15625 16.53125 19.15625 16.53125 19.15625 16.53125 Z M 19.09375 16.5 "/>
<path style=" stroke:none;fill-rule:nonzero;fill:rgb(65.098041%,18.82353%,15.686275%);fill-opacity:1;" d="M 21.15625 13.71875 C 21.21875 13.75 21.21875 13.75 21.21875 13.75 Z M 21.15625 13.71875 "/>
<path style=" stroke:none;fill-rule:nonzero;fill:rgb(66.666669%,19.215687%,16.862746%);fill-opacity:1;" d="M 16.59375 13.1875 C 16.65625 13.21875 16.65625 13.21875 16.65625 13.21875 Z M 16.59375 13.1875 "/>
<path style=" stroke:none;fill-rule:nonzero;fill:rgb(66.274512%,18.82353%,16.470589%);fill-opacity:1;" d="M 15.5 13.15625 C 15.5625 13.1875 15.5625 13.1875 15.5625 13.1875 Z M 15.5 13.15625 "/>
<path style=" stroke:none;fill-rule:nonzero;fill:rgb(65.882355%,18.431373%,15.686275%);fill-opacity:1;" d="M 12.40625 13.09375 C 12.46875 13.125 12.46875 13.125 12.46875 13.125 Z M 12.40625 13.09375 "/>
<path style=" stroke:none;fill-rule:nonzero;fill:rgb(68.627453%,19.215687%,16.470589%);fill-opacity:1;" d="M 20.75 11.09375 C 20.8125 11.125 20.8125 11.125 20.8125 11.125 Z M 20.75 11.09375 "/>
<path style=" stroke:none;fill-rule:nonzero;fill:rgb(67.058825%,18.82353%,16.078432%);fill-opacity:1;" d="M 12.4375 10.0625 C 12.5 10.09375 12.5 10.09375 12.5 10.09375 Z M 12.4375 10.0625 "/>
</g>
</svg>
